<?xml version='1.0' encoding='UTF-8' standalone='no'?>
<!-- Created with Fritzing (http://www.fritzing.org/) -->
<svg xmlns="http://www.w3.org/2000/svg" baseProfile="tiny" x="0in" viewBox="0 0 240.945 198.425" xmlns:svg="http://www.w3.org/2000/svg"  version="1.2" y="0in" width="3.34646in" height="2.75591in">
 <g transform="matrix(-1, 0, 0, 1, 240.945, 0)">
  <g partID="57642">
   <g id="silkscreen0">
    <rect stroke-width="0.576" x="0.288" fill="none" stroke="black" y="0.288" width="240.369" height="197.849"/>
   </g>
  </g>
  <g partID="57640">
   <g id="board">
    <rect stroke-width="0.5" x="0.288" fill-opacity="0.5" fill="none" stroke="black" y="0.288" id="boardoutline" width="240.369" height="197.849"/>
   </g>
  </g>
  <g partID="57642">
   <g id="silkscreen0">
    <rect stroke-width="0.576" x="0.288" fill="none" stroke="black" y="0.288" width="240.369" height="197.849"/>
   </g>
  </g>
  <g partID="854310332">
   <g transform="translate(58.1204,20.6237)">
    <g id="silkscreen0" flipped="1">
     <g transform="matrix(-1, 0, 0, 1, 25.0911, 0)">
      <g>
       <g>
        <g>
         <line x2="12.0472" stroke-width="0.576" class="other" x1="24.8031" y2="3.11811" stroke="black" y1="3.11811" stroke-linecap="round"/>
         <line x2="0.708661" stroke-width="0.576" class="other" x1="0.708661" y2="18.1417" stroke="black" y1="5.95276" stroke-linecap="round"/>
         <line x2="0.708661" stroke-width="0.576" class="other" x1="0.708661" y2="33.1654" stroke="black" y1="23.4992" stroke-linecap="round"/>
         <line x2="24.8031" stroke-width="0.576" class="other" x1="24.8031" y2="3.11811" stroke="black" y1="33.1654" stroke-linecap="round"/>
         <line x2="24.8031" stroke-width="0.576" class="other" x1="0.708661" y2="33.1654" stroke="black" y1="33.1654" stroke-linecap="round"/>
         <line x2="24.6614" stroke-width="0.576" class="other" x1="24.8031" y2="33.1654" stroke="black" y1="33.1654" stroke-linecap="round"/>
        </g>
       </g>
      </g>
     </g>
    </g>
   </g>
  </g>
  <g id="partLabel" partID="854310330">
   <g transform="translate(68.9767,30.192)">
    <g font-size="5" font-weight="normal" font-style="normal" fill-opacity="1" fill="#000000" stroke="none" id="silkscreen0Label" font-family="'OCRA'">
     <text x="0" y="3.75">J1</text>
    </g>
   </g>
  </g>
  <g partID="854549350">
   <g transform="translate(14.2774,5.64415)">
    <g id="copper0">
     <circle cy="4.71811" cx="4.71811" stroke-width="0.72" r="3.11811" fill="white" stroke="white" id="nonconn0"/>
    </g>
   </g>
  </g>
  <g partID="854549330">
   <g transform="translate(221.107,5.64415)">
    <g id="copper0">
     <circle cy="4.71811" cx="4.71811" stroke-width="0.72" r="3.11811" fill="white" stroke="white" id="nonconn0"/>
    </g>
   </g>
  </g>
  <g partID="854549310">
   <g transform="translate(221.107,186.43)">
    <g id="copper0">
     <circle cy="4.71811" cx="4.71811" stroke-width="0.72" r="3.11811" fill="white" stroke="white" id="nonconn0"/>
    </g>
   </g>
  </g>
  <g partID="854549280">
   <g transform="translate(14.2774,186.43)">
    <g id="copper0">
     <circle cy="4.71811" cx="4.71811" stroke-width="0.72" r="3.11811" fill="white" stroke="white" id="nonconn0"/>
    </g>
   </g>
  </g>
  <g partID="58730">
   <g transform="translate(203.769,85.9623)">
    <g transform="matrix(0,1,-1,0,0,0)">
     <g id="copper0">
      <circle cy="10.8" stroke-width="1.944" cx="3.6" r="1.908" fill="white" stroke="white" id="connector16pad"/>
      <rect stroke-width="1.944" x="1.692" fill="white" y="8.892" stroke="white" width="3.814" height="3.816"/>
      <circle cy="18" stroke-width="1.944" cx="3.6" r="1.908" fill="white" stroke="white" id="connector17pad"/>
      <circle cy="25.2" stroke-width="1.944" cx="3.6" r="1.908" fill="white" stroke="white" id="connector18pad"/>
      <circle cy="32.4" stroke-width="1.944" cx="3.6" r="1.908" fill="white" stroke="white" id="connector19pad"/>
      <circle cy="39.6" stroke-width="1.944" cx="3.6" r="1.908" fill="white" stroke="white" id="connector20pad"/>
      <circle cy="46.8" stroke-width="1.944" cx="3.6" r="1.908" fill="white" stroke="white" id="connector21pad"/>
      <circle cy="54" stroke-width="1.944" cx="3.6" r="1.908" fill="white" stroke="white" id="connector22pad"/>
      <circle cy="61.2" stroke-width="1.944" cx="3.6" r="1.908" fill="white" stroke="white" id="connector23pad"/>
      <circle cy="68.4" stroke-width="1.944" cx="3.6" r="1.908" fill="white" stroke="white" id="connector24pad"/>
      <circle cy="75.6" stroke-width="1.944" cx="3.6" r="1.908" fill="white" stroke="white" id="connector25pad"/>
      <circle cy="82.8" stroke-width="1.944" cx="3.6" r="1.908" fill="white" stroke="white" id="connector26pad"/>
      <circle cy="90" stroke-width="1.944" cx="3.6" r="1.908" fill="white" stroke="white" id="connector27pad"/>
      <circle cy="97.2" stroke-width="1.944" cx="3.6" r="1.908" fill="white" stroke="white" id="connector28pad"/>
      <circle cy="104.4" stroke-width="1.944" cx="3.6" r="1.908" fill="white" stroke="white" id="connector29pad"/>
      <circle cy="111.6" stroke-width="1.944" cx="3.6" r="1.908" fill="white" stroke="white" id="connector30pad"/>
      <circle cy="10.8" stroke-width="1.944" cx="46.8" r="1.908" fill="white" stroke="white" id="connector31pad"/>
      <circle cy="18" stroke-width="1.944" cx="46.8" r="1.908" fill="white" stroke="white" id="connector32pad"/>
      <circle cy="25.2" stroke-width="1.944" cx="46.8" r="1.908" fill="white" stroke="white" id="connector33pad"/>
      <circle cy="32.4" stroke-width="1.944" cx="46.8" r="1.908" fill="white" stroke="white" id="connector34pad"/>
      <circle cy="39.6" stroke-width="1.944" cx="46.8" r="1.908" fill="white" stroke="white" id="connector35pad"/>
      <circle cy="46.8" stroke-width="1.944" cx="46.8" r="1.908" fill="white" stroke="white" id="connector36pad"/>
      <circle cy="54" stroke-width="1.944" cx="46.8" r="1.908" fill="white" stroke="white" id="connector37pad"/>
      <circle cy="61.2" stroke-width="1.944" cx="46.8" r="1.908" fill="white" stroke="white" id="connector38pad"/>
      <circle cy="68.4" stroke-width="1.944" cx="46.8" r="1.908" fill="white" stroke="white" id="connector39pad"/>
      <circle cy="75.6" stroke-width="1.944" cx="46.8" r="1.908" fill="white" stroke="white" id="connector40pad"/>
      <circle cy="82.8" stroke-width="1.944" cx="46.8" r="1.908" fill="white" stroke="white" id="connector41pad"/>
      <circle cy="90" stroke-width="1.944" cx="46.8" r="1.908" fill="white" stroke="white" id="connector42pad"/>
      <circle cy="97.2" stroke-width="1.944" cx="46.8" r="1.908" fill="white" stroke="white" id="connector43pad"/>
      <circle cy="104.4" stroke-width="1.944" cx="46.8" r="1.908" fill="white" stroke="white" id="connector44pad"/>
      <circle cy="111.6" stroke-width="1.944" cx="46.8" r="1.908" fill="white" stroke="white" id="connector45pad"/>
     </g>
    </g>
   </g>
  </g>
  <g partID="854310330">
   <g transform="translate(58.1204,20.6237)">
    <g id="copper0" flipped="1">
     <g transform="matrix(-1, 0, 0, 1, 25.0911, 0)">
      <g>
       <g>
        <g>
         <circle cy="2.83465" cx="5.66929" stroke-width="2.13732" r="2.12598" fill="white" stroke="white" id="connector2pad" connectorname="PWR"/>
         <path stroke-width="0.72" d="m8.50393,0a2.83464,2.83465,0,0,1,2.83464,2.83465l0,0a2.83464,2.83465,0,0,1,-2.83464,2.83465l-5.66929,0a2.83464,2.83465,0,0,1,-2.83464,-2.83465l0,0a2.83464,2.83465,0,0,1,2.83464,-2.83465l5.66929,0zM4.25197,2.83465a1.41732,1.41732,0,1,0,2.83464,0,1.41732,1.41732,0,1,0,-2.83464,0z" fill="white" stroke="white"/>
         <circle cy="20.6929" cx="5.66929" stroke-width="2.13732" r="2.12598" fill="white" stroke="white" id="connector0pad" connectorname="GND@1"/>
         <path stroke-width="0.72" d="m8.50393,17.8583a2.83464,2.83465,0,0,1,2.83464,2.83465l0,0a2.83464,2.83465,0,0,1,-2.83464,2.83465l-5.66929,0a2.83464,2.83465,0,0,1,-2.83464,-2.83465l0,0a2.83464,2.83465,0,0,1,2.83464,-2.83465l5.66929,0zM4.25197,20.6929a1.41732,1.41732,0,1,0,2.83464,0,1.41732,1.41732,0,1,0,-2.83464,0z" fill="white" stroke="white"/>
         <circle cy="11.3386" cx="19.8425" stroke-width="2.13732" r="2.12598" fill="white" stroke="white" id="connector1pad" connectorname="GND@2"/>
         <path stroke-width="0.72" d="m19.8425,5.66929a2.83464,2.83465,0,0,1,2.83464,2.83465l0,5.66929a2.83464,2.83465,0,0,1,-2.83464,2.83465l0,0a2.83464,2.83465,0,0,1,-2.83464,-2.83465l0,-5.66929a2.83464,2.83465,0,0,1,2.83464,-2.83465l0,0zM18.4252,11.3386a1.41732,1.41732,0,1,0,2.83464,0,1.41732,1.41732,0,1,0,-2.83464,0z" fill="white" stroke="white"/>
         <g id="copper0">
          <circle cy="2.83465" cx="5.66929" stroke-width="2.13732" r="2.12598" fill="white" stroke="white" id="connector2pad" connectorname="PWR"/>
          <path stroke-width="0.72" d="m8.50393,0a2.83464,2.83465,0,0,1,2.83464,2.83465l0,0a2.83464,2.83465,0,0,1,-2.83464,2.83465l-5.66929,0a2.83464,2.83465,0,0,1,-2.83464,-2.83465l0,0a2.83464,2.83465,0,0,1,2.83464,-2.83465l5.66929,0zM4.25197,2.83465a1.41732,1.41732,0,1,0,2.83464,0,1.41732,1.41732,0,1,0,-2.83464,0z" fill="white" stroke="white"/>
          <circle cy="20.6929" cx="5.66929" stroke-width="2.13732" r="2.12598" fill="white" stroke="white" id="connector0pad" connectorname="GND@1"/>
          <path stroke-width="0.72" d="m8.50393,17.8583a2.83464,2.83465,0,0,1,2.83464,2.83465l0,0a2.83464,2.83465,0,0,1,-2.83464,2.83465l-5.66929,0a2.83464,2.83465,0,0,1,-2.83464,-2.83465l0,0a2.83464,2.83465,0,0,1,2.83464,-2.83465l5.66929,0zM4.25197,20.6929a1.41732,1.41732,0,1,0,2.83464,0,1.41732,1.41732,0,1,0,-2.83464,0z" fill="white" stroke="white"/>
          <circle cy="11.3386" cx="19.8425" stroke-width="2.13732" r="2.12598" fill="white" stroke="white" id="connector1pad" connectorname="GND@2"/>
          <path stroke-width="0.72" d="m19.8425,5.66929a2.83464,2.83465,0,0,1,2.83464,2.83465l0,5.66929a2.83464,2.83465,0,0,1,-2.83464,2.83465l0,0a2.83464,2.83465,0,0,1,-2.83464,-2.83465l0,-5.66929a2.83464,2.83465,0,0,1,2.83464,-2.83465l0,0zM18.4252,11.3386a1.41732,1.41732,0,1,0,2.83464,0,1.41732,1.41732,0,1,0,-2.83464,0z" fill="white" stroke="white"/>
         </g>
        </g>
        <g>
         <circle cy="2.83465" cx="5.66929" stroke-width="2.13732" r="2.12598" fill="white" stroke="white" id="connector2pad" connectorname="PWR"/>
         <path stroke-width="0.72" d="m8.50393,0a2.83464,2.83465,0,0,1,2.83464,2.83465l0,0a2.83464,2.83465,0,0,1,-2.83464,2.83465l-5.66929,0a2.83464,2.83465,0,0,1,-2.83464,-2.83465l0,0a2.83464,2.83465,0,0,1,2.83464,-2.83465l5.66929,0zM4.25197,2.83465a1.41732,1.41732,0,1,0,2.83464,0,1.41732,1.41732,0,1,0,-2.83464,0z" fill="white" stroke="white"/>
         <circle cy="20.6929" cx="5.66929" stroke-width="2.13732" r="2.12598" fill="white" stroke="white" id="connector0pad" connectorname="GND@1"/>
         <path stroke-width="0.72" d="m8.50393,17.8583a2.83464,2.83465,0,0,1,2.83464,2.83465l0,0a2.83464,2.83465,0,0,1,-2.83464,2.83465l-5.66929,0a2.83464,2.83465,0,0,1,-2.83464,-2.83465l0,0a2.83464,2.83465,0,0,1,2.83464,-2.83465l5.66929,0zM4.25197,20.6929a1.41732,1.41732,0,1,0,2.83464,0,1.41732,1.41732,0,1,0,-2.83464,0z" fill="white" stroke="white"/>
         <circle cy="11.3386" cx="19.8425" stroke-width="2.13732" r="2.12598" fill="white" stroke="white" id="connector1pad" connectorname="GND@2"/>
         <path stroke-width="0.72" d="m19.8425,5.66929a2.83464,2.83465,0,0,1,2.83464,2.83465l0,5.66929a2.83464,2.83465,0,0,1,-2.83464,2.83465l0,0a2.83464,2.83465,0,0,1,-2.83464,-2.83465l0,-5.66929a2.83464,2.83465,0,0,1,2.83464,-2.83465l0,0zM18.4252,11.3386a1.41732,1.41732,0,1,0,2.83464,0,1.41732,1.41732,0,1,0,-2.83464,0z" fill="white" stroke="white"/>
        </g>
       </g>
      </g>
     </g>
    </g>
   </g>
  </g>
  <g partID="854525410">
   <g transform="translate(151.569,154.362)">
    <g transform="matrix(0,1,-1,0,0,0)">
     <g id="copper0">
      <rect stroke-width="2.16" x="12.24" fill="white" y="6.84" stroke="white" id="square" width="4.32" height="4.32"/>
      <circle cy="9" cx="14.4" stroke-width="2.16" r="2.16" fill="white" stroke="white" id="connector0pin"/>
      <circle cy="23.4" cx="14.4" stroke-width="2.16" r="2.16" fill="white" stroke="white" id="connector1pin"/>
     </g>
    </g>
   </g>
  </g>
  <g partID="854525270">
   <g transform="translate(187.569,154.362)">
    <g transform="matrix(0,1,-1,0,0,0)">
     <g id="copper0">
      <rect stroke-width="2.16" x="12.24" fill="white" y="6.84" stroke="white" id="square" width="4.32" height="4.32"/>
      <circle cy="9" cx="14.4" stroke-width="2.16" r="2.16" fill="white" stroke="white" id="connector0pin"/>
      <circle cy="23.4" cx="14.4" stroke-width="2.16" r="2.16" fill="white" stroke="white" id="connector1pin"/>
     </g>
    </g>
   </g>
  </g>
  <g partID="854524770">
   <g transform="translate(223.569,154.362)">
    <g transform="matrix(0,1,-1,0,0,0)">
     <g id="copper0">
      <rect stroke-width="2.16" x="12.24" fill="white" y="6.84" stroke="white" id="square" width="4.32" height="4.32"/>
      <circle cy="9" cx="14.4" stroke-width="2.16" r="2.16" fill="white" stroke="white" id="connector0pin"/>
      <circle cy="23.4" cx="14.4" stroke-width="2.16" r="2.16" fill="white" stroke="white" id="connector1pin"/>
     </g>
    </g>
   </g>
  </g>
  <g partID="854334800">
   <g transform="translate(191.169,53.5623)">
    <g transform="matrix(0,-1,1,0,0,0)">
     <g id="copper0">
      <rect stroke-width="2.16" x="12.2627" fill="white" y="6.86268" stroke="white" id="square" width="4.27465" height="4.27465"/>
      <circle cy="9" cx="14.4" stroke-width="2.16" r="2.13732" fill="white" stroke="white" id="connector0pin"/>
      <circle cy="23.4" cx="14.4" stroke-width="2.16" r="2.13732" fill="white" stroke="white" id="connector1pin"/>
     </g>
    </g>
   </g>
  </g>
  <g partID="854335120">
   <g transform="translate(155.169,53.5623)">
    <g transform="matrix(0,-1,1,0,0,0)">
     <g id="copper0">
      <rect stroke-width="2.16" x="12.24" fill="white" y="6.84" stroke="white" id="square" width="4.32" height="4.32"/>
      <circle cy="9" cx="14.4" stroke-width="2.16" r="2.16" fill="white" stroke="white" id="connector0pin"/>
      <circle cy="23.4" cx="14.4" stroke-width="2.16" r="2.16" fill="white" stroke="white" id="connector1pin"/>
     </g>
    </g>
   </g>
  </g>
  <g partID="854352380">
   <g transform="translate(56.1691,69.7623)">
    <g transform="matrix(-1,0,0,-1,0,0)">
     <g id="copper0">
      <rect stroke-width="2.16" x="12.24" fill="white" y="6.84" stroke="white" id="square" width="4.32" height="4.32"/>
      <circle cy="9" cx="14.4" stroke-width="2.16" r="2.16" fill="white" stroke="white" id="connector0pin"/>
      <circle cy="23.4" cx="14.4" stroke-width="2.16" r="2.16" fill="white" stroke="white" id="connector1pin"/>
      <circle cy="37.8" cx="14.4" stroke-width="2.16" r="2.16" fill="white" stroke="white" id="connector2pin"/>
     </g>
    </g>
   </g>
  </g>
  <g partID="854525550">
   <g transform="translate(108.369,154.362)">
    <g transform="matrix(0,1,-1,0,0,0)">
     <g id="copper0">
      <rect stroke-width="2.16" x="12.24" fill="white" y="6.84" stroke="white" id="square" width="4.32" height="4.32"/>
      <circle cy="9" cx="14.4" stroke-width="2.16" r="2.16" fill="white" stroke="white" id="connector0pin"/>
      <circle cy="23.4" cx="14.4" stroke-width="2.16" r="2.16" fill="white" stroke="white" id="connector1pin"/>
      <circle cy="37.8" cx="14.4" stroke-width="2.16" r="2.16" fill="white" stroke="white" id="connector2pin"/>
     </g>
    </g>
   </g>
  </g>
  <g partID="854339900">
   <g transform="translate(83.169,53.5623)">
    <g transform="matrix(0,-1,1,0,0,0)">
     <g id="copper0">
      <rect stroke-width="2.16" x="12.24" fill="white" y="6.84" stroke="white" id="square" width="4.32" height="4.32"/>
      <circle cy="9" cx="14.4" stroke-width="2.16" r="2.16" fill="white" stroke="white" id="connector0pin"/>
      <circle cy="23.4" cx="14.4" stroke-width="2.16" r="2.16" fill="white" stroke="white" id="connector1pin"/>
     </g>
    </g>
   </g>
  </g>
  <g partID="854335440">
   <g transform="translate(119.169,53.5623)">
    <g transform="matrix(0,-1,1,0,0,0)">
     <g id="copper0">
      <rect stroke-width="2.16" x="12.24" fill="white" y="6.84" stroke="white" id="square" width="4.32" height="4.32"/>
      <circle cy="9" cx="14.4" stroke-width="2.16" r="2.16" fill="white" stroke="white" id="connector0pin"/>
      <circle cy="23.4" cx="14.4" stroke-width="2.16" r="2.16" fill="white" stroke="white" id="connector1pin"/>
     </g>
    </g>
   </g>
  </g>
  <g partID="854333320">
   <g transform="translate(56.1691,170.562)">
    <g transform="matrix(-1,0,0,-1,0,0)">
     <g id="copper0">
      <rect stroke-width="2.16" x="12.24" fill="white" y="6.84" stroke="white" id="square" width="4.32" height="4.32"/>
      <circle cy="9" cx="14.4" stroke-width="2.16" r="2.16" fill="white" stroke="white" id="connector0pin"/>
      <circle cy="23.4" cx="14.4" stroke-width="2.16" r="2.16" fill="white" stroke="white" id="connector1pin"/>
      <circle cy="37.8" cx="14.4" stroke-width="2.16" r="2.16" fill="white" stroke="white" id="connector2pin"/>
     </g>
    </g>
   </g>
  </g>
  <g partID="854126250">
   <g transform="translate(73.6651,86.8622)">
    <g transform="matrix(0,1,-1,0,0,0)">
     <g id="copper0">
      <g id="copper1">
       <!-- <rect width="55" x="10" y="15.5" fill="none" height="55" stroke="rgb(255, 191, 0)" stroke-width="20" />  -->
       <circle cy="3.096" cx="2.7" stroke-width="2.16" r="1.98" fill="white" stroke="white" id="connector0pin"/>
       <circle cy="3.096" cx="31.5" stroke-width="2.16" r="1.98" fill="white" stroke="white" id="connector1pin"/>
      </g>
     </g>
    </g>
   </g>
  </g>
  <g partID="854129470">
   <g transform="translate(79.3567,143.396)">
    <g transform="matrix(-1,0,0,-1,0,0)">
     <g id="copper0">
      <g id="copper1">
       <circle cy="10.6336" cx="8.7876" stroke-width="1.85384" r="1.7008" fill="white" stroke="white" id="connector1pad"/>
       <rect stroke-width="1.85384" x="7.0868" fill="white" stroke="white" y="8.9328" width="3.4016" height="3.4016"/>
       <circle cy="3.5464" cx="8.7876" stroke-width="1.85384" r="1.7008" fill="white" stroke="white" id="connector0pad"/>
      </g>
     </g>
    </g>
   </g>
  </g>
 </g>
</svg>
