<?xml version='1.0' encoding='UTF-8' standalone='no'?>
<!-- Created with Fritzing (http://www.fritzing.org/) -->
<svg xmlns="http://www.w3.org/2000/svg" baseProfile="tiny" x="0in" viewBox="0 0 240.945 198.425" xmlns:svg="http://www.w3.org/2000/svg"  version="1.2" y="0in" width="3.34646in" height="2.75591in">
 <g partID="57640">
  <g  id="board">
   <rect stroke-width="0.5" x="0.288"  fill-opacity="0.5" fill="none" stroke="black" y="0.288" id="boardoutline" width="240.369" height="197.849"/>
  </g>
 </g>
 <g partID="854549351">
  <g transform="translate(14.2774,5.64415)">
   <g  id="copper1">
    <circle cy="4.71811" cx="4.71811" stroke-width="0.72" r="3.11811"  fill="black" stroke="black" id="nonconn0"/>
   </g>
  </g>
 </g>
 <g partID="854549331">
  <g transform="translate(221.107,5.64415)">
   <g  id="copper1">
    <circle cy="4.71811" cx="4.71811" stroke-width="0.72" r="3.11811"  fill="black" stroke="black" id="nonconn0"/>
   </g>
  </g>
 </g>
 <g partID="854549311">
  <g transform="translate(221.107,186.43)">
   <g  id="copper1">
    <circle cy="4.71811" cx="4.71811" stroke-width="0.72" r="3.11811"  fill="black" stroke="black" id="nonconn0"/>
   </g>
  </g>
 </g>
 <g partID="854549281">
  <g transform="translate(14.2774,186.43)">
   <g  id="copper1">
    <circle cy="4.71811" cx="4.71811" stroke-width="0.72" r="3.11811"  fill="black" stroke="black" id="nonconn0"/>
   </g>
  </g>
 </g>
 <g partID="58731">
  <g transform="translate(203.769,85.9623)">
   <g transform="matrix(0,1,-1,0,0,0)">
    <g  id="copper1">
     <g  id="copper0">
      <circle cy="10.8" stroke-width="1.944" cx="3.6" r="1.908"  fill="black" stroke="black" id="connector16pad"/>
      <rect stroke-width="1.944" x="1.692"  fill="black" y="8.892" stroke="black" width="3.814" height="3.816"/>
      <circle cy="18" stroke-width="1.944" cx="3.6" r="1.908"  fill="black" stroke="black" id="connector17pad"/>
      <circle cy="25.2" stroke-width="1.944" cx="3.6" r="1.908"  fill="black" stroke="black" id="connector18pad"/>
      <circle cy="32.4" stroke-width="1.944" cx="3.6" r="1.908"  fill="black" stroke="black" id="connector19pad"/>
      <circle cy="39.6" stroke-width="1.944" cx="3.6" r="1.908"  fill="black" stroke="black" id="connector20pad"/>
      <circle cy="46.8" stroke-width="1.944" cx="3.6" r="1.908"  fill="black" stroke="black" id="connector21pad"/>
      <circle cy="54" stroke-width="1.944" cx="3.6" r="1.908"  fill="black" stroke="black" id="connector22pad"/>
      <circle cy="61.2" stroke-width="1.944" cx="3.6" r="1.908"  fill="black" stroke="black" id="connector23pad"/>
      <circle cy="68.4" stroke-width="1.944" cx="3.6" r="1.908"  fill="black" stroke="black" id="connector24pad"/>
      <circle cy="75.6" stroke-width="1.944" cx="3.6" r="1.908"  fill="black" stroke="black" id="connector25pad"/>
      <circle cy="82.8" stroke-width="1.944" cx="3.6" r="1.908"  fill="black" stroke="black" id="connector26pad"/>
      <circle cy="90" stroke-width="1.944" cx="3.6" r="1.908"  fill="black" stroke="black" id="connector27pad"/>
      <circle cy="97.2" stroke-width="1.944" cx="3.6" r="1.908"  fill="black" stroke="black" id="connector28pad"/>
      <circle cy="104.4" stroke-width="1.944" cx="3.6" r="1.908"  fill="black" stroke="black" id="connector29pad"/>
      <circle cy="111.6" stroke-width="1.944" cx="3.6" r="1.908"  fill="black" stroke="black" id="connector30pad"/>
      <circle cy="10.8" stroke-width="1.944" cx="46.8" r="1.908"  fill="black" stroke="black" id="connector31pad"/>
      <circle cy="18" stroke-width="1.944" cx="46.8" r="1.908"  fill="black" stroke="black" id="connector32pad"/>
      <circle cy="25.2" stroke-width="1.944" cx="46.8" r="1.908"  fill="black" stroke="black" id="connector33pad"/>
      <circle cy="32.4" stroke-width="1.944" cx="46.8" r="1.908"  fill="black" stroke="black" id="connector34pad"/>
      <circle cy="39.6" stroke-width="1.944" cx="46.8" r="1.908"  fill="black" stroke="black" id="connector35pad"/>
      <circle cy="46.8" stroke-width="1.944" cx="46.8" r="1.908"  fill="black" stroke="black" id="connector36pad"/>
      <circle cy="54" stroke-width="1.944" cx="46.8" r="1.908"  fill="black" stroke="black" id="connector37pad"/>
      <circle cy="61.2" stroke-width="1.944" cx="46.8" r="1.908"  fill="black" stroke="black" id="connector38pad"/>
      <circle cy="68.4" stroke-width="1.944" cx="46.8" r="1.908"  fill="black" stroke="black" id="connector39pad"/>
      <circle cy="75.6" stroke-width="1.944" cx="46.8" r="1.908"  fill="black" stroke="black" id="connector40pad"/>
      <circle cy="82.8" stroke-width="1.944" cx="46.8" r="1.908"  fill="black" stroke="black" id="connector41pad"/>
      <circle cy="90" stroke-width="1.944" cx="46.8" r="1.908"  fill="black" stroke="black" id="connector42pad"/>
      <circle cy="97.2" stroke-width="1.944" cx="46.8" r="1.908"  fill="black" stroke="black" id="connector43pad"/>
      <circle cy="104.4" stroke-width="1.944" cx="46.8" r="1.908"  fill="black" stroke="black" id="connector44pad"/>
      <circle cy="111.6" stroke-width="1.944" cx="46.8" r="1.908"  fill="black" stroke="black" id="connector45pad"/>
     </g>
    </g>
   </g>
  </g>
 </g>
 <g partID="854310331">
  <g transform="translate(58.1204,20.6237)">
   <g id="copper1" flipped="1">
    <g transform="matrix(-1, 0, 0, 1, 25.0911, 0)">
     <g>
      <g>
       <g>
        <circle cy="2.83465" cx="5.66929" stroke-width="2.13732" r="2.12598" fill="black" stroke="black" id="connector2pad" connectorname="PWR"/>
        <path stroke-width="0.72" d="m8.50393,0a2.83464,2.83465,0,0,1,2.83464,2.83465l0,0a2.83464,2.83465,0,0,1,-2.83464,2.83465l-5.66929,0a2.83464,2.83465,0,0,1,-2.83464,-2.83465l0,0a2.83464,2.83465,0,0,1,2.83464,-2.83465l5.66929,0zM4.25197,2.83465a1.41732,1.41732,0,1,0,2.83464,0,1.41732,1.41732,0,1,0,-2.83464,0z" fill="black" stroke="black"/>
        <circle cy="20.6929" cx="5.66929" stroke-width="2.13732" r="2.12598" fill="black" stroke="black" id="connector0pad" connectorname="GND@1"/>
        <path stroke-width="0.72" d="m8.50393,17.8583a2.83464,2.83465,0,0,1,2.83464,2.83465l0,0a2.83464,2.83465,0,0,1,-2.83464,2.83465l-5.66929,0a2.83464,2.83465,0,0,1,-2.83464,-2.83465l0,0a2.83464,2.83465,0,0,1,2.83464,-2.83465l5.66929,0zM4.25197,20.6929a1.41732,1.41732,0,1,0,2.83464,0,1.41732,1.41732,0,1,0,-2.83464,0z" fill="black" stroke="black"/>
        <circle cy="11.3386" cx="19.8425" stroke-width="2.13732" r="2.12598" fill="black" stroke="black" id="connector1pad" connectorname="GND@2"/>
        <path stroke-width="0.72" d="m19.8425,5.66929a2.83464,2.83465,0,0,1,2.83464,2.83465l0,5.66929a2.83464,2.83465,0,0,1,-2.83464,2.83465l0,0a2.83464,2.83465,0,0,1,-2.83464,-2.83465l0,-5.66929a2.83464,2.83465,0,0,1,2.83464,-2.83465l0,0zM18.4252,11.3386a1.41732,1.41732,0,1,0,2.83464,0,1.41732,1.41732,0,1,0,-2.83464,0z" fill="black" stroke="black"/>
       </g>
       <g>
        <circle cy="2.83465" cx="5.66929" stroke-width="2.13732" r="2.12598" fill="black" stroke="black" id="connector2pad" connectorname="PWR"/>
        <path stroke-width="0.72" d="m8.50393,0a2.83464,2.83465,0,0,1,2.83464,2.83465l0,0a2.83464,2.83465,0,0,1,-2.83464,2.83465l-5.66929,0a2.83464,2.83465,0,0,1,-2.83464,-2.83465l0,0a2.83464,2.83465,0,0,1,2.83464,-2.83465l5.66929,0zM4.25197,2.83465a1.41732,1.41732,0,1,0,2.83464,0,1.41732,1.41732,0,1,0,-2.83464,0z" fill="black" stroke="black"/>
        <circle cy="20.6929" cx="5.66929" stroke-width="2.13732" r="2.12598" fill="black" stroke="black" id="connector0pad" connectorname="GND@1"/>
        <path stroke-width="0.72" d="m8.50393,17.8583a2.83464,2.83465,0,0,1,2.83464,2.83465l0,0a2.83464,2.83465,0,0,1,-2.83464,2.83465l-5.66929,0a2.83464,2.83465,0,0,1,-2.83464,-2.83465l0,0a2.83464,2.83465,0,0,1,2.83464,-2.83465l5.66929,0zM4.25197,20.6929a1.41732,1.41732,0,1,0,2.83464,0,1.41732,1.41732,0,1,0,-2.83464,0z" fill="black" stroke="black"/>
        <circle cy="11.3386" cx="19.8425" stroke-width="2.13732" r="2.12598" fill="black" stroke="black" id="connector1pad" connectorname="GND@2"/>
        <path stroke-width="0.72" d="m19.8425,5.66929a2.83464,2.83465,0,0,1,2.83464,2.83465l0,5.66929a2.83464,2.83465,0,0,1,-2.83464,2.83465l0,0a2.83464,2.83465,0,0,1,-2.83464,-2.83465l0,-5.66929a2.83464,2.83465,0,0,1,2.83464,-2.83465l0,0zM18.4252,11.3386a1.41732,1.41732,0,1,0,2.83464,0,1.41732,1.41732,0,1,0,-2.83464,0z" fill="black" stroke="black"/>
        <g id="copper0">
         <circle cy="2.83465" cx="5.66929" stroke-width="2.13732" r="2.12598" fill="black" stroke="black" id="connector2pad" connectorname="PWR"/>
         <path stroke-width="0.72" d="m8.50393,0a2.83464,2.83465,0,0,1,2.83464,2.83465l0,0a2.83464,2.83465,0,0,1,-2.83464,2.83465l-5.66929,0a2.83464,2.83465,0,0,1,-2.83464,-2.83465l0,0a2.83464,2.83465,0,0,1,2.83464,-2.83465l5.66929,0zM4.25197,2.83465a1.41732,1.41732,0,1,0,2.83464,0,1.41732,1.41732,0,1,0,-2.83464,0z" fill="black" stroke="black"/>
         <circle cy="20.6929" cx="5.66929" stroke-width="2.13732" r="2.12598" fill="black" stroke="black" id="connector0pad" connectorname="GND@1"/>
         <path stroke-width="0.72" d="m8.50393,17.8583a2.83464,2.83465,0,0,1,2.83464,2.83465l0,0a2.83464,2.83465,0,0,1,-2.83464,2.83465l-5.66929,0a2.83464,2.83465,0,0,1,-2.83464,-2.83465l0,0a2.83464,2.83465,0,0,1,2.83464,-2.83465l5.66929,0zM4.25197,20.6929a1.41732,1.41732,0,1,0,2.83464,0,1.41732,1.41732,0,1,0,-2.83464,0z" fill="black" stroke="black"/>
         <circle cy="11.3386" cx="19.8425" stroke-width="2.13732" r="2.12598" fill="black" stroke="black" id="connector1pad" connectorname="GND@2"/>
         <path stroke-width="0.72" d="m19.8425,5.66929a2.83464,2.83465,0,0,1,2.83464,2.83465l0,5.66929a2.83464,2.83465,0,0,1,-2.83464,2.83465l0,0a2.83464,2.83465,0,0,1,-2.83464,-2.83465l0,-5.66929a2.83464,2.83465,0,0,1,2.83464,-2.83465l0,0zM18.4252,11.3386a1.41732,1.41732,0,1,0,2.83464,0,1.41732,1.41732,0,1,0,-2.83464,0z" fill="black" stroke="black"/>
        </g>
       </g>
      </g>
     </g>
    </g>
   </g>
  </g>
 </g>
 <g partID="854525411">
  <g transform="translate(151.569,154.362)">
   <g transform="matrix(0,1,-1,0,0,0)">
    <g id="copper1">
     <g id="copper0">
      <rect stroke-width="2.16" x="12.24" fill="black" y="6.84" stroke="black" id="square" width="4.32" height="4.32"/>
      <circle cy="9" cx="14.4" stroke-width="2.16" r="2.16" fill="black" stroke="black" id="connector0pin"/>
      <circle cy="23.4" cx="14.4" stroke-width="2.16" r="2.16" fill="black" stroke="black" id="connector1pin"/>
     </g>
    </g>
   </g>
  </g>
 </g>
 <g partID="854525271">
  <g transform="translate(187.569,154.362)">
   <g transform="matrix(0,1,-1,0,0,0)">
    <g id="copper1">
     <g id="copper0">
      <rect stroke-width="2.16" x="12.24" fill="black" y="6.84" stroke="black" id="square" width="4.32" height="4.32"/>
      <circle cy="9" cx="14.4" stroke-width="2.16" r="2.16" fill="black" stroke="black" id="connector0pin"/>
      <circle cy="23.4" cx="14.4" stroke-width="2.16" r="2.16" fill="black" stroke="black" id="connector1pin"/>
     </g>
    </g>
   </g>
  </g>
 </g>
 <g partID="854524771">
  <g transform="translate(223.569,154.362)">
   <g transform="matrix(0,1,-1,0,0,0)">
    <g id="copper1">
     <g id="copper0">
      <rect stroke-width="2.16" x="12.24" fill="black" y="6.84" stroke="black" id="square" width="4.32" height="4.32"/>
      <circle cy="9" cx="14.4" stroke-width="2.16" r="2.16" fill="black" stroke="black" id="connector0pin"/>
      <circle cy="23.4" cx="14.4" stroke-width="2.16" r="2.16" fill="black" stroke="black" id="connector1pin"/>
     </g>
    </g>
   </g>
  </g>
 </g>
 <g partID="854334801">
  <g transform="translate(191.169,53.5623)">
   <g transform="matrix(0,-1,1,0,0,0)">
    <g  id="copper1">
     <g  id="copper0">
      <rect stroke-width="2.16" x="12.2627"  fill="black" y="6.86268" stroke="black" id="square" width="4.27465" height="4.27465"/>
      <circle cy="9" cx="14.4" stroke-width="2.16" r="2.13732"  fill="black" stroke="black" id="connector0pin"/>
      <circle cy="23.4" cx="14.4" stroke-width="2.16" r="2.13732"  fill="black" stroke="black" id="connector1pin"/>
     </g>
    </g>
   </g>
  </g>
 </g>
 <g partID="854335121">
  <g transform="translate(155.169,53.5623)">
   <g transform="matrix(0,-1,1,0,0,0)">
    <g id="copper1">
     <g id="copper0">
      <rect stroke-width="2.16" x="12.24" fill="black" y="6.84" stroke="black" id="square" width="4.32" height="4.32"/>
      <circle cy="9" cx="14.4" stroke-width="2.16" r="2.16" fill="black" stroke="black" id="connector0pin"/>
      <circle cy="23.4" cx="14.4" stroke-width="2.16" r="2.16" fill="black" stroke="black" id="connector1pin"/>
     </g>
    </g>
   </g>
  </g>
 </g>
 <g partID="854352381">
  <g transform="translate(56.1691,69.7623)">
   <g transform="matrix(-1,0,0,-1,0,0)">
    <g id="copper1">
     <g id="copper0">
      <rect stroke-width="2.16" x="12.24" fill="black" y="6.84" stroke="black" id="square" width="4.32" height="4.32"/>
      <circle cy="9" cx="14.4" stroke-width="2.16" r="2.16" fill="black" stroke="black" id="connector0pin"/>
      <circle cy="23.4" cx="14.4" stroke-width="2.16" r="2.16" fill="black" stroke="black" id="connector1pin"/>
      <circle cy="37.8" cx="14.4" stroke-width="2.16" r="2.16" fill="black" stroke="black" id="connector2pin"/>
     </g>
    </g>
   </g>
  </g>
 </g>
 <g partID="854525551">
  <g transform="translate(108.369,154.362)">
   <g transform="matrix(0,1,-1,0,0,0)">
    <g id="copper1">
     <g id="copper0">
      <rect stroke-width="2.16" x="12.24" fill="black" y="6.84" stroke="black" id="square" width="4.32" height="4.32"/>
      <circle cy="9" cx="14.4" stroke-width="2.16" r="2.16" fill="black" stroke="black" id="connector0pin"/>
      <circle cy="23.4" cx="14.4" stroke-width="2.16" r="2.16" fill="black" stroke="black" id="connector1pin"/>
      <circle cy="37.8" cx="14.4" stroke-width="2.16" r="2.16" fill="black" stroke="black" id="connector2pin"/>
     </g>
    </g>
   </g>
  </g>
 </g>
 <g partID="854339901">
  <g transform="translate(83.169,53.5623)">
   <g transform="matrix(0,-1,1,0,0,0)">
    <g id="copper1">
     <g id="copper0">
      <rect stroke-width="2.16" x="12.24" fill="black" y="6.84" stroke="black" id="square" width="4.32" height="4.32"/>
      <circle cy="9" cx="14.4" stroke-width="2.16" r="2.16" fill="black" stroke="black" id="connector0pin"/>
      <circle cy="23.4" cx="14.4" stroke-width="2.16" r="2.16" fill="black" stroke="black" id="connector1pin"/>
     </g>
    </g>
   </g>
  </g>
 </g>
 <g partID="854335441">
  <g transform="translate(119.169,53.5623)">
   <g transform="matrix(0,-1,1,0,0,0)">
    <g id="copper1">
     <g id="copper0">
      <rect stroke-width="2.16" x="12.24" fill="black" y="6.84" stroke="black" id="square" width="4.32" height="4.32"/>
      <circle cy="9" cx="14.4" stroke-width="2.16" r="2.16" fill="black" stroke="black" id="connector0pin"/>
      <circle cy="23.4" cx="14.4" stroke-width="2.16" r="2.16" fill="black" stroke="black" id="connector1pin"/>
     </g>
    </g>
   </g>
  </g>
 </g>
 <g partID="854333321">
  <g transform="translate(56.1691,170.562)">
   <g transform="matrix(-1,0,0,-1,0,0)">
    <g id="copper1">
     <g id="copper0">
      <rect stroke-width="2.16" x="12.24" fill="black" y="6.84" stroke="black" id="square" width="4.32" height="4.32"/>
      <circle cy="9" cx="14.4" stroke-width="2.16" r="2.16" fill="black" stroke="black" id="connector0pin"/>
      <circle cy="23.4" cx="14.4" stroke-width="2.16" r="2.16" fill="black" stroke="black" id="connector1pin"/>
      <circle cy="37.8" cx="14.4" stroke-width="2.16" r="2.16" fill="black" stroke="black" id="connector2pin"/>
     </g>
    </g>
   </g>
  </g>
 </g>
 <g partID="854126251">
  <g transform="translate(73.6651,86.8622)">
   <g transform="matrix(0,1,-1,0,0,0)">
    <g  id="copper1">
     <!-- <rect width="55" x="10" y="15.5" fill="none" height="55" stroke="rgb(255, 191, 0)" stroke-width="20" />  -->
     <circle cy="3.096" cx="2.7" stroke-width="2.16" r="1.98"  fill="black" stroke="black" id="connector0pin"/>
     <circle cy="3.096" cx="31.5" stroke-width="2.16" r="1.98"  fill="black" stroke="black" id="connector1pin"/>
    </g>
   </g>
  </g>
 </g>
 <g partID="854129471">
  <g transform="translate(79.3567,143.396)">
   <g transform="matrix(-1,0,0,-1,0,0)">
    <g  id="copper1">
     <circle cy="10.6336" cx="8.7876" stroke-width="1.85384" r="1.7008"  fill="black" stroke="black" id="connector1pad"/>
     <rect stroke-width="1.85384" x="7.0868"  fill="black" stroke="black" y="8.9328" width="3.4016" height="3.4016"/>
     <circle cy="3.5464" cx="8.7876" stroke-width="1.85384" r="1.7008"  fill="black" stroke="black" id="connector0pad"/>
    </g>
   </g>
  </g>
 </g>
</svg>
